<svg width="80" height="80" viewBox="0 0 80 80" fill="none" xmlns="http://www.w3.org/2000/svg">
<rect width="80" height="80" rx="40" fill="#274B58"/>
<g clip-path="url(#clip0_8_452)">
<path d="M27.1703 37.6772C27.1703 40.3912 29.3782 42.5991 32.0922 42.5991C34.5674 42.5991 36.6207 40.7623 36.9631 38.3803H40C40.2507 38.3803 40.4823 38.2469 40.6082 38.0301L43.9428 32.2828L44.8455 33.8282C43.7134 34.7308 42.9859 36.1202 42.9859 37.6772C42.9859 40.3912 45.1938 42.5991 47.9078 42.5991C50.6218 42.5991 52.8297 40.3912 52.8297 37.6772C52.8297 34.9633 50.6218 32.7553 47.9078 32.7553C47.2539 32.7553 46.63 32.8846 46.0587 33.1171L44.644 30.695V28.0728C44.644 27.6845 44.3292 27.3697 43.9409 27.3697H41.1284C40.7401 27.3697 40.4253 27.6845 40.4253 28.0728C40.4253 28.4611 40.7401 28.7759 41.1284 28.7759H43.2378V30.696L39.9979 36.2797L36.6402 30.5307C36.5141 30.3148 36.283 30.1822 36.0331 30.1822C35.7817 30.1826 35.5505 30.316 35.4249 30.5324L33.9282 33.112C33.3604 32.8828 32.7411 32.7553 32.0922 32.7553C29.3782 32.7553 27.1703 34.9633 27.1703 37.6772ZM45.5645 35.0593L47.3007 38.0319C47.4315 38.2558 47.6667 38.3805 47.9085 38.3804C48.0289 38.3804 48.1509 38.3495 48.2625 38.2843C48.5978 38.0885 48.7109 37.6579 48.5149 37.3226L46.7781 34.3488C47.133 34.2281 47.5127 34.1615 47.9078 34.1615C49.8464 34.1615 51.4234 35.7386 51.4234 37.6771C51.4234 39.6157 49.8464 41.1928 47.9078 41.1928C45.9693 41.1928 44.3922 39.6157 44.3922 37.6771C44.3922 36.6382 44.8456 35.7034 45.5645 35.0593ZM36.0351 32.2828L38.7752 36.9741H36.9632C36.7802 35.7007 36.1079 34.5839 35.1436 33.8196L36.0351 32.2828ZM34.428 35.0527C34.9842 35.5483 35.3828 36.2172 35.5371 36.9741H33.3132L34.428 35.0527ZM31.4829 38.0281C31.6083 38.246 31.8407 38.3803 32.0922 38.3803H35.537C35.2104 39.9831 33.79 41.1928 32.0922 41.1928C30.1536 41.1928 28.5766 39.6158 28.5766 37.6772C28.5766 35.7387 30.1536 34.1616 32.0922 34.1616C32.4838 34.1616 32.8603 34.2269 33.2123 34.3456L31.4839 37.3243C31.3578 37.5418 31.3574 37.8102 31.4829 38.0281Z" fill="#F9ECD1"/>
<path d="M34.6268 28.7759H37.4393C37.8276 28.7759 38.1424 28.4611 38.1424 28.0728C38.1424 27.6844 37.8276 27.3696 37.4393 27.3696H34.6268C34.2385 27.3696 33.9237 27.6844 33.9237 28.0728C33.9237 28.4611 34.2385 28.7759 34.6268 28.7759Z" fill="#F9ECD1"/>
<path d="M40 18.8125C36.2237 18.8125 32.5486 20.1425 29.6516 22.5574C29.3533 22.8061 29.3131 23.2494 29.5618 23.5477C29.8104 23.8459 30.2537 23.8863 30.5521 23.6375C33.1967 21.4329 36.5521 20.2188 40 20.2188C48.1418 20.2188 54.7656 26.8426 54.7656 34.9844C54.7656 43.1262 48.1418 49.75 40 49.75C31.8582 49.75 25.2344 43.1262 25.2344 34.9844C25.2344 31.5364 26.4485 28.1811 28.6532 25.5364C28.9018 25.2381 28.8616 24.7948 28.5633 24.5462C28.265 24.2975 27.8218 24.3377 27.5731 24.636C25.1582 27.5329 23.8281 31.208 23.8281 34.9844C23.8281 43.9016 31.0828 51.1562 40 51.1562C48.9172 51.1562 56.1719 43.9016 56.1719 34.9844C56.1719 26.0672 48.9172 18.8125 40 18.8125Z" fill="#F9ECD1"/>
<path d="M40 16C29.532 16 21.0156 24.5163 21.0156 34.9844C21.0156 39.3005 22.5045 43.5261 25.2079 46.8829L25.2119 46.8797C25.2565 46.9435 25.306 47.0051 25.3552 47.0662L38.3573 63.214C38.7614 63.7135 39.36 64 40 64C40.6408 64 41.2395 63.7132 41.6424 63.2132C41.6879 63.1568 41.7369 63.0961 41.7903 63.0297L54.7939 46.8827C57.4961 43.5252 58.9844 39.2996 58.9844 34.9844C58.9844 24.5163 50.468 16 40 16V16ZM53.6985 46.0009C53.5684 46.1624 40.7282 62.1075 40.5508 62.3268C40.5497 62.3281 40.5486 62.3295 40.5475 62.3308C40.4128 62.4979 40.2133 62.5938 40 62.5938C39.7866 62.5938 39.5865 62.4976 39.4517 62.331C39.322 62.1699 26.5057 46.2545 26.3079 46.0069C26.3063 46.005 26.3047 46.0029 26.3031 46.0009C23.764 42.8481 22.4219 39.0386 22.4219 34.9844C22.4219 25.2917 30.3074 17.4062 40 17.4062C49.6926 17.4062 57.5781 25.2917 57.5781 34.9844C57.5781 39.0379 56.2365 42.8475 53.6985 46.0009Z" fill="#F9ECD1"/>
</g>
<defs>
<clipPath id="clip0_8_452">
<rect width="48" height="48" fill="white" transform="translate(16 16)"/>
</clipPath>
</defs>
</svg>
